<svg width="26" height="39" viewBox="0 0 26 39" fill="none" xmlns="http://www.w3.org/2000/svg">
<path d="M13 0C5.83194 0 0 5.83194 0 13C0 15.1519 0.538001 17.2854 1.56076 19.1778L12.2891 38.581C12.4319 38.8397 12.7041 38.9999 13 38.9999C13.2959 38.9999 13.5681 38.8397 13.7109 38.581L24.4432 19.1714C25.462 17.2854 26 15.1518 26 12.9999C26 5.83194 20.1681 0 13 0ZM13 19.5C9.41597 19.5 6.50004 16.584 6.50004 13C6.50004 9.41597 9.41597 6.50004 13 6.50004C16.584 6.50004 19.5 9.41597 19.5 13C19.5 16.584 16.584 19.5 13 19.5Z" fill="#F1773C"/>
</svg>
