<svg width="41" height="30" viewBox="0 0 41 30" fill="none" xmlns="http://www.w3.org/2000/svg">
<path d="M0.855829 2.37828C6.48291 6.92102 16.3567 14.9131 19.2587 17.405C19.6483 17.7414 20.0661 17.9124 20.4999 17.9124C20.9328 17.9124 21.3499 17.743 21.7386 17.4082C24.6431 14.9139 34.5169 6.92102 40.1441 2.37828C40.4944 2.09599 40.5478 1.59982 40.2642 1.25471C39.6085 0.457244 38.6309 0 37.5832 0H3.41664C2.36898 0 1.39131 0.457244 0.735712 1.25479C0.452076 1.59982 0.505488 2.09599 0.855829 2.37828Z" fill="#F1773C"/>
<path d="M40.5045 4.84056C40.2017 4.70621 39.8455 4.75308 39.5936 4.95827C35.9083 7.93605 31.0528 11.8705 27.3909 14.8729C27.1982 15.0304 27.0898 15.2617 27.094 15.5043C27.0982 15.746 27.2158 15.9742 27.4143 16.1252C30.8168 18.7229 35.9443 22.2964 39.647 24.8361C39.7947 24.9378 39.9698 24.9895 40.1458 24.9895C40.2793 24.9895 40.4127 24.9601 40.5354 24.8997C40.8207 24.7605 41 24.4806 41 24.1752V5.57924C40.9999 5.262 40.8064 4.97338 40.5045 4.84056Z" fill="#F1773C"/>
<path d="M1.353 24.836C5.0566 22.2963 10.185 18.7229 13.5866 16.1251C13.7851 15.974 13.9027 15.7458 13.9069 15.5041C13.9111 15.2616 13.8026 15.0302 13.61 14.8727C9.948 11.8703 5.0916 7.93586 1.40641 4.95805C1.1528 4.75287 0.795815 4.7076 0.495522 4.84034C0.193548 4.97317 0 5.26179 0 5.57903V24.1752C0 24.4806 0.179375 24.7605 0.464612 24.8997C0.587212 24.9601 0.720702 24.9895 0.854191 24.9895C1.0302 24.9895 1.20533 24.9378 1.353 24.836Z" fill="#F1773C"/>
<path d="M39.9531 27.0511C36.3771 24.6124 29.7898 20.0659 25.8577 17.0236C25.5374 16.7747 25.0735 16.7827 24.7583 17.0419C23.9867 17.6836 23.3411 18.2243 22.8831 18.6171C21.4767 19.8272 19.5248 19.8272 18.1151 18.6155C17.6588 18.2235 17.0132 17.6811 16.2416 17.0418C15.9288 16.781 15.4642 16.7731 15.143 17.0235C11.2241 20.0554 4.62939 24.6075 1.04758 27.051C0.848184 27.1878 0.719739 27.3985 0.694755 27.6315C0.670571 27.8645 0.75145 28.0958 0.919134 28.2676C1.56568 28.9316 2.47657 29.3125 3.41669 29.3125H37.5833C38.5234 29.3125 39.4334 28.9316 40.0816 28.2677C40.2484 28.0967 40.3302 27.8653 40.306 27.6323C40.2809 27.3994 40.1525 27.1879 39.9531 27.0511Z" fill="#F1773C"/>
</svg>
